<svg width="137" height="143" viewBox="0 0 137 143" fill="none" xmlns="http://www.w3.org/2000/svg">
  <path
    d="M42.6097 33.0168C39.2755 58.6043 64.7688 75.8942 52.2736 96.0252C45.3156 107.235 31.1023 108.008 22.8955 103.37C15.2795 99.0651 12.8106 86.1189 14.966 78.7035C15.1805 77.9656 14.6061 77.2472 13.9136 77.5801C6.89225 80.9554 -3.18739 100.274 0.975299 116C5.47528 133 20.5761 142.814 37.198 142.814C53.8198 142.814 67.7358 138.546 75.4669 117.672C81.1328 102.374 80.1758 79.7899 64.6434 59.6891C47.0159 36.8771 54.4215 12.2236 58.3975 1.99805C58.7544 1.08024 57.7608 0.294841 57.0024 0.92296C51.1179 5.79649 44.9702 14.9023 42.6097 33.0168Z"
    fill="url(#paint0_linear_0_1)" />
  <path
    d="M80.6186 142.332C105.295 138.017 126.203 127.663 136.658 103.715C137.094 102.716 135.825 101.911 135.045 102.673C128.059 109.493 122.533 112.119 114.358 114.451C113.395 114.726 112.641 113.507 113.236 112.701C124.616 97.2904 119 74.0022 116.316 63.9981C116.045 62.9883 114.276 62.929 113.803 63.8617C111.024 69.3503 105.917 74.1988 102.374 76.9452C101.694 77.4718 100.708 76.8983 100.646 76.0409C100.03 67.4796 90.1802 58.5597 82.6733 52.1437C81.7653 51.3676 79.9329 52.926 80.5121 53.9707C95.1851 80.4352 90.012 93.0654 84.8369 110.618C84.6207 111.352 85.2678 111.995 85.9489 111.648C90.7581 109.194 97.7568 101.006 101.881 95.6056C102.418 94.9021 103.499 95.1781 103.52 96.063C103.844 109.754 89.0324 130.071 79.7065 140.668C79.0807 141.379 79.6854 142.495 80.6186 142.332Z"
    fill="url(#paint1_linear_0_1)" />
  <defs>
    <linearGradient id="paint0_linear_0_1" x1="93.2485" y1="-49.3193" x2="49.1812" y2="157.487"
      gradientUnits="userSpaceOnUse">
      <stop stop-color="#08FFFF" />
      <stop offset="1" stop-color="#3479FF" />
    </linearGradient>
    <linearGradient id="paint1_linear_0_1" x1="108.131" y1="44.6134" x2="108.131" y2="142.798"
      gradientUnits="userSpaceOnUse">
      <stop stop-color="#FFE600" />
      <stop offset="1" stop-color="#FF3A3A" />
    </linearGradient>
  </defs>
</svg>
  