<svg width="793" height="144" viewBox="0 0 793 144" fill="none" xmlns="http://www.w3.org/2000/svg">
  <path
    d="M225.137 37.3636H243.04V107.42C243.008 113.842 241.646 119.372 238.954 124.01C236.262 128.616 232.5 132.167 227.667 134.665C222.867 137.13 217.272 138.362 210.882 138.362C205.044 138.362 199.79 137.324 195.12 135.249C190.482 133.14 186.8 130.027 184.076 125.908C181.352 121.789 179.989 116.664 179.989 110.534H197.941C197.974 113.226 198.558 115.545 199.693 117.491C200.86 119.437 202.466 120.929 204.509 121.967C206.553 123.005 208.904 123.524 211.564 123.524C214.45 123.524 216.899 122.924 218.91 121.724C220.921 120.491 222.445 118.675 223.483 116.275C224.553 113.875 225.105 110.923 225.137 107.42V37.3636ZM294.926 138.46C287.434 138.46 280.964 136.903 275.515 133.789C270.098 130.643 265.931 126.2 263.012 120.459C260.093 114.686 258.633 107.891 258.633 100.074C258.633 92.3874 260.093 85.6412 263.012 79.8356C265.963 73.9975 270.082 69.4568 275.369 66.2134C280.655 62.9376 286.867 61.2997 294.002 61.2997C298.608 61.2997 302.954 62.0457 307.04 63.5376C311.159 64.9972 314.792 67.2675 317.938 70.3487C321.117 73.4299 323.614 77.3544 325.43 82.1222C327.247 86.8575 328.155 92.5009 328.155 99.0526V104.453H266.904V92.582H311.273C311.24 89.2089 310.511 86.2088 309.084 83.5817C307.657 80.9221 305.662 78.8301 303.1 77.3058C300.57 75.7814 297.618 75.0192 294.245 75.0192C290.645 75.0192 287.483 75.8949 284.758 77.6463C282.034 79.3653 279.91 81.6357 278.385 84.4574C276.893 87.2467 276.131 90.3117 276.099 93.6523V104.015C276.099 108.361 276.893 112.091 278.482 115.205C280.072 118.286 282.293 120.653 285.148 122.308C288.002 123.929 291.342 124.74 295.17 124.74C297.732 124.74 300.051 124.383 302.127 123.67C304.202 122.924 306.002 121.837 307.527 120.41C309.051 118.983 310.203 117.215 310.981 115.107L327.425 116.956C326.387 121.302 324.409 125.097 321.49 128.34C318.603 131.551 314.905 134.049 310.397 135.832C305.889 137.584 300.732 138.46 294.926 138.46ZM374.889 62.2727V75.8949H331.93V62.2727H374.889ZM342.536 44.3693H360.148V114.523C360.148 116.891 360.505 118.707 361.218 119.972C361.964 121.205 362.937 122.048 364.137 122.502C365.337 122.956 366.667 123.183 368.126 123.183C369.229 123.183 370.235 123.102 371.143 122.94C372.083 122.778 372.797 122.632 373.283 122.502L376.251 136.27C375.311 136.595 373.965 136.951 372.213 137.341C370.494 137.73 368.386 137.957 365.889 138.022C361.478 138.151 357.504 137.487 353.969 136.027C350.434 134.535 347.628 132.232 345.553 129.119C343.509 126.005 342.504 122.113 342.536 117.442V44.3693ZM416.577 137L388.457 37.3636H407.869L425.821 110.583H426.745L445.913 37.3636H463.574L482.79 110.631H483.666L501.618 37.3636H521.03L492.91 137H475.104L455.157 67.0891H454.379L434.383 137H416.577ZM553.718 138.46C546.42 138.46 540.096 136.854 534.744 133.643C529.392 130.432 525.241 125.94 522.289 120.167C519.37 114.394 517.911 107.647 517.911 99.9283C517.911 92.209 519.37 85.4466 522.289 79.641C525.241 73.8353 529.392 69.3271 534.744 66.1161C540.096 62.9052 546.42 61.2997 553.718 61.2997C561.015 61.2997 567.34 62.9052 572.691 66.1161C578.043 69.3271 582.178 73.8353 585.097 79.641C588.049 85.4466 589.524 92.209 589.524 99.9283C589.524 107.647 588.049 114.394 585.097 120.167C582.178 125.94 578.043 130.432 572.691 133.643C567.34 136.854 561.015 138.46 553.718 138.46ZM553.815 124.351C557.772 124.351 561.08 123.264 563.74 121.091C566.399 118.886 568.378 115.934 569.675 112.237C571.005 108.539 571.67 104.42 571.67 99.8796C571.67 95.3065 571.005 91.1712 569.675 87.4737C568.378 83.7438 566.399 80.7762 563.74 78.5707C561.08 76.3652 557.772 75.2624 553.815 75.2624C549.761 75.2624 546.388 76.3652 543.696 78.5707C541.036 80.7762 539.041 83.7438 537.712 87.4737C536.414 91.1712 535.766 95.3065 535.766 99.8796C535.766 104.42 536.414 108.539 537.712 112.237C539.041 115.934 541.036 118.886 543.696 121.091C546.388 123.264 549.761 124.351 553.815 124.351ZM601.047 137V62.2727H618.124V74.7273H618.902C620.264 70.4136 622.6 67.0891 625.908 64.7539C629.248 62.3862 633.059 61.2024 637.341 61.2024C638.314 61.2024 639.4 61.2511 640.6 61.3484C641.833 61.4132 642.854 61.5267 643.665 61.6889V77.8896C642.919 77.6301 641.735 77.4031 640.114 77.2084C638.525 76.9814 636.984 76.8679 635.492 76.8679C632.281 76.8679 629.394 77.5652 626.832 78.9599C624.302 80.3221 622.308 82.2195 620.848 84.652C619.389 87.0845 618.659 89.89 618.659 93.0685V137H601.047ZM676.932 138.314C671.061 138.314 665.807 136.805 661.169 133.789C656.531 130.773 652.866 126.394 650.174 120.653C647.482 114.913 646.136 107.939 646.136 99.7337C646.136 91.4306 647.498 84.425 650.222 78.7166C652.979 72.9759 656.693 68.646 661.363 65.7269C666.034 62.7754 671.239 61.2997 676.98 61.2997C681.359 61.2997 684.959 62.0457 687.781 63.5376C690.602 64.9972 692.84 66.7648 694.494 68.8406C696.149 70.8839 697.43 72.8137 698.338 74.63H699.068V37.3636H716.728V137H699.408V125.227H698.338C697.43 127.043 696.116 128.973 694.397 131.016C692.678 133.027 690.408 134.746 687.586 136.173C684.764 137.6 681.213 138.314 676.932 138.314ZM681.845 123.864C685.575 123.864 688.754 122.859 691.381 120.848C694.008 118.805 696.003 115.967 697.365 112.334C698.727 108.702 699.408 104.469 699.408 99.6364C699.408 94.8037 698.727 90.6036 697.365 87.0359C696.035 83.4682 694.057 80.6951 691.429 78.7166C688.835 76.7382 685.64 75.7489 681.845 75.7489C677.921 75.7489 674.645 76.7706 672.018 78.8139C669.391 80.8572 667.412 83.679 666.082 87.2791C664.753 90.8793 664.088 94.9983 664.088 99.6364C664.088 104.307 664.753 108.475 666.082 112.14C667.445 115.772 669.439 118.643 672.066 120.751C674.726 122.826 677.986 123.864 681.845 123.864ZM790.446 82.0249L774.392 83.7763C773.938 82.1546 773.143 80.6302 772.008 79.2031C770.905 77.776 769.413 76.6246 767.532 75.7489C765.651 74.8732 763.348 74.4354 760.624 74.4354C756.959 74.4354 753.877 75.23 751.38 76.8192C748.915 78.4085 747.699 80.468 747.731 82.9979C747.699 85.1709 748.493 86.9386 750.115 88.3008C751.769 89.663 754.494 90.782 758.288 91.6577L771.035 94.3821C778.105 95.9065 783.36 98.3228 786.798 101.631C790.268 104.939 792.02 109.269 792.052 114.621C792.02 119.324 790.641 123.475 787.917 127.075C785.225 130.643 781.479 133.432 776.678 135.443C771.878 137.454 766.364 138.46 760.137 138.46C750.991 138.46 743.628 136.546 738.05 132.719C732.471 128.859 729.147 123.491 728.076 116.615L745.25 114.961C746.029 118.334 747.683 120.88 750.212 122.599C752.742 124.318 756.034 125.178 760.089 125.178C764.272 125.178 767.629 124.318 770.159 122.599C772.721 120.88 774.003 118.756 774.003 116.226C774.003 114.086 773.176 112.318 771.521 110.923C769.9 109.529 767.37 108.458 763.932 107.712L751.185 105.037C744.018 103.545 738.715 101.031 735.277 97.4957C731.839 93.928 730.136 89.4197 730.168 83.9709C730.136 79.3653 731.385 75.3759 733.915 72.0028C736.477 68.5973 740.028 65.9702 744.569 64.1214C749.142 62.2403 754.413 61.2997 760.38 61.2997C769.138 61.2997 776.03 63.1647 781.057 66.8945C786.117 70.6244 789.246 75.6679 790.446 82.0249Z"
    fill="black" />
  <path
    d="M42.6097 34.0168C39.2755 59.6043 64.7688 76.8942 52.2736 97.0252C45.3156 108.235 31.1023 109.008 22.8955 104.37C15.2795 100.065 12.8106 87.1189 14.966 79.7035C15.1805 78.9656 14.6061 78.2472 13.9136 78.5801C6.89225 81.9554 -3.18739 101.274 0.975299 117C5.47528 134 20.5761 143.814 37.198 143.814C53.8198 143.814 67.7358 139.546 75.4669 118.672C81.1328 103.374 80.1758 80.7899 64.6434 60.6891C47.0159 37.8771 54.4215 13.2236 58.3975 2.99805C58.7544 2.08024 57.7608 1.29484 57.0024 1.92296C51.1179 6.79649 44.9702 15.9023 42.6097 34.0168Z"
    fill="url(#paint0_linear_0_1)" />
  <path
    d="M80.6186 143.332C105.295 139.017 126.203 128.663 136.658 104.715C137.094 103.716 135.825 102.911 135.045 103.673C128.059 110.493 122.533 113.119 114.358 115.451C113.395 115.726 112.641 114.507 113.236 113.701C124.616 98.2904 119 75.0022 116.316 64.9981C116.045 63.9883 114.276 63.929 113.803 64.8617C111.024 70.3503 105.917 75.1988 102.374 77.9452C101.694 78.4718 100.708 77.8983 100.646 77.0409C100.03 68.4796 90.1802 59.5597 82.6733 53.1437C81.7653 52.3676 79.9329 53.926 80.5121 54.9707C95.1851 81.4352 90.012 94.0654 84.8369 111.618C84.6207 112.352 85.2678 112.995 85.9489 112.648C90.7581 110.194 97.7568 102.006 101.881 96.6056C102.418 95.9021 103.499 96.1781 103.52 97.063C103.844 110.754 89.0324 131.071 79.7065 141.668C79.0807 142.379 79.6854 143.495 80.6186 143.332Z"
    fill="url(#paint1_linear_0_1)" />
  <defs>
    <linearGradient id="paint0_linear_0_1" x1="93.2485" y1="-48.3193" x2="49.1812" y2="158.487"
      gradientUnits="userSpaceOnUse">
      <stop stop-color="#08FFFF" />
      <stop offset="1" stop-color="#3479FF" />
    </linearGradient>
    <linearGradient id="paint1_linear_0_1" x1="108.131" y1="45.6134" x2="108.131" y2="143.798"
      gradientUnits="userSpaceOnUse">
      <stop stop-color="#FFE600" />
      <stop offset="1" stop-color="#FF3A3A" />
    </linearGradient>
  </defs>
</svg>
  